<?xml version="1.0" encoding="UTF-8" standalone="no"?>
<!-- Created with Inkscape (http://www.inkscape.org/) -->
<svg xmlns:dc="http://purl.org/dc/elements/1.1/" xmlns:cc="http://creativecommons.org/ns#" xmlns:rdf="http://www.w3.org/1999/02/22-rdf-syntax-ns#" xmlns:svg="http://www.w3.org/2000/svg" xmlns="http://www.w3.org/2000/svg" xmlns:sodipodi="http://sodipodi.sourceforge.net/DTD/sodipodi-0.dtd" xmlns:inkscape="http://www.inkscape.org/namespaces/inkscape" width="751.5332" height="799.61646" id="svg2" sodipodi:version="0.32" inkscape:version="0.46" sodipodi:docname="Drawing-kalorimeter.svg" inkscape:output_extension="org.inkscape.output.svg.inkscape" version="1.0">
  <defs id="defs4">
    <marker inkscape:stockid="Arrow2Lend" orient="auto" refY="0" refX="0" id="Arrow2Lend" style="overflow:visible">
      <path id="path3278" style="font-size:12px;fill-rule:evenodd;stroke-width:0.625;stroke-linejoin:round" d="M 8.7185878,4.0337352 L -2.2072895,0.016013256 L 8.7185884,-4.0017078 C 6.97309,-1.6296469 6.9831476,1.6157441 8.7185878,4.0337352 z" transform="matrix(-1.1,0,0,-1.1,-1.1,0)"/>
    </marker>
    <inkscape:perspective sodipodi:type="inkscape:persp3d" inkscape:vp_x="0 : 526.18109 : 1" inkscape:vp_y="0 : 1000 : 0" inkscape:vp_z="744.09448 : 526.18109 : 1" inkscape:persp3d-origin="372.04724 : 350.78739 : 1" id="perspective10"/>
    <inkscape:perspective id="perspective2390" inkscape:persp3d-origin="372.04724 : 350.78739 : 1" inkscape:vp_z="744.09448 : 526.18109 : 1" inkscape:vp_y="0 : 1000 : 0" inkscape:vp_x="0 : 526.18109 : 1" sodipodi:type="inkscape:persp3d"/>
  </defs>
  <sodipodi:namedview id="base" pagecolor="#ffffff" bordercolor="#666666" borderopacity="1.0" inkscape:pageopacity="0.0" inkscape:pageshadow="2" inkscape:zoom="0.70710678" inkscape:cx="536.25332" inkscape:cy="602.50154" inkscape:document-units="px" inkscape:current-layer="layer1" showgrid="false" inkscape:window-width="1436" inkscape:window-height="1037" inkscape:window-x="0" inkscape:window-y="0"/>
  <metadata id="metadata7">
    <rdf:RDF>
      <cc:Work rdf:about="">
        <dc:format>image/svg+xml</dc:format>
        <dc:type rdf:resource="http://purl.org/dc/dcmitype/StillImage"/>
      </cc:Work>
    </rdf:RDF>
  </metadata>
  <g inkscape:label="Ebene 1" inkscape:groupmode="layer" id="layer1" transform="translate(-27.03118,-27.480934)">
    <g id="g3271">
      <rect transform="translate(45.001742,45.31702)" y="-16.836086" x="-16.970562" height="797.61646" width="749.5332" id="rect2493" style="opacity:1;fill:#ffffff;fill-opacity:1;stroke:#ffffff;stroke-width:2;stroke-miterlimit:4;stroke-dasharray:none;stroke-dashoffset:0;stroke-opacity:1"/>
      <g id="g2455">
        <rect style="opacity:0.8;fill:none;fill-opacity:1;stroke:#000000;stroke-width:44.73070908;stroke-miterlimit:4;stroke-dasharray:none;stroke-dashoffset:0;stroke-opacity:0.87096773" id="rect2396" width="492.89313" height="426.71765" x="67.367096" y="262.4631"/>
        <rect style="opacity:0.8;fill:#0080dc;fill-opacity:1;stroke:none;stroke-width:1;stroke-miterlimit:4;stroke-dasharray:none;stroke-dashoffset:0;stroke-opacity:1" id="rect3184" width="327.65247" height="294.66354" x="141.44844" y="332.8808"/>
        <path style="fill:none;fill-rule:evenodd;stroke:#0000a6;stroke-width:11.18267727;stroke-linecap:butt;stroke-linejoin:miter;stroke-miterlimit:4;stroke-dasharray:none;stroke-opacity:1" d="M 184.78132,82.668366 L 187.01785,531.09373 L 160.17943,524.38412 C 145.2786,536.80617 153.66908,541.46447 160.17943,546.74948 L 211.61974,522.14759 C 217.76507,529.97546 220.2302,537.80334 212.73801,545.63121 L 184.78132,529.97546" id="path3168" sodipodi:nodetypes="ccccccc"/>
        <path style="fill:none;fill-rule:evenodd;stroke:#000000;stroke-width:2.23653531px;stroke-linecap:butt;stroke-linejoin:miter;stroke-opacity:1" d="M 228.54352,369.16461 L 228.82309,595.33425 L 400.47718,595.05469 L 400.75675,369.16461 L 400.75675,369.16461" id="path3170" sodipodi:nodetypes="ccccc"/>
        <path style="fill:none;fill-rule:evenodd;stroke:#000000;stroke-width:2.23653531px;stroke-linecap:butt;stroke-linejoin:miter;stroke-opacity:1" d="M 141.47314,320.20433 L 141.4053,627.66013 L 471.05785,627.26474 L 468.82132,320.8594 L 141.47314,320.20433 z" id="path3172" sodipodi:nodetypes="ccccc"/>
        <rect style="opacity:0.96000001;fill:#ffe7ec;fill-opacity:0.4745098;stroke:none;stroke-width:1;stroke-miterlimit:4;stroke-dasharray:none;stroke-dashoffset:0;stroke-opacity:1" id="rect3216" width="171.37453" height="225.89009" x="228.82309" y="369.72375"/>
        <path style="fill:none;fill-rule:evenodd;stroke:#c80000;stroke-width:2.23653531px;stroke-linecap:butt;stroke-linejoin:miter;stroke-opacity:1" d="M 244.19926,484.34618 L 287.81171,546.96918 L 335.89721,546.96918 L 370.56352,493.29232" id="path3174"/>
        <path style="fill:none;fill-rule:evenodd;stroke:#000000;stroke-width:2.59727788px;stroke-linecap:butt;stroke-linejoin:miter;stroke-opacity:1" d="M 430.91859,79.057232 L 431.21272,353.71658 L 440.37248,353.87969 L 440.97785,79.066562 L 430.91859,79.057232 z" id="path3178" sodipodi:nodetypes="ccccc"/>
        <path sodipodi:type="arc" style="opacity:0.8;fill:#ff0000;fill-opacity:1;stroke:#000000;stroke-width:7.68539619;stroke-miterlimit:4;stroke-dasharray:none;stroke-dashoffset:0;stroke-opacity:1" id="path3182" sodipodi:cx="288.5" sodipodi:cy="141.11218" sodipodi:rx="36.5" sodipodi:ry="26.75" d="M 324.46598,136.55312 A 36.5,26.75 0 1 1 324.44548,136.4671" sodipodi:start="6.1119168" sodipodi:end="12.391838" sodipodi:open="true" transform="matrix(0.1874048,0,0,0.4518958,381.9595,299.41066)"/>
        <path style="fill:#000000;fill-opacity:0.4745098;fill-rule:evenodd;stroke:#000000;stroke-width:0.89461416;stroke-linecap:butt;stroke-linejoin:miter;stroke-miterlimit:4;stroke-dasharray:none;stroke-opacity:1" d="M 267.68289,517.61465 L 287.95149,546.96918 L 335.89721,547.10896 L 356.02604,516.21682 C 322.9018,479.25693 294.88352,490.8959 267.68289,517.61465 z" id="path3186" sodipodi:nodetypes="ccccc"/>
        <path style="fill:none;fill-rule:evenodd;stroke:#ff0000;stroke-width:2.23653531px;stroke-linecap:butt;stroke-linejoin:miter;stroke-opacity:1" d="M 435.90231,352.76496 C 435.9722,316.49115 435.69263,154.65685 435.69263,154.65685" id="path3188" sodipodi:nodetypes="cc"/>
        <path style="fill:none;fill-rule:evenodd;stroke:#000000;stroke-width:2.23653531px;stroke-linecap:butt;stroke-linejoin:miter;stroke-opacity:1" d="M 283.33864,158.37114 C 283.89777,158.93028 283.33864,513.42115 283.33864,513.42115" id="path3190" sodipodi:nodetypes="cc"/>
        <path sodipodi:nodetypes="cc" id="path3192" d="M 341.48856,158.37114 C 342.04769,158.93028 341.48856,513.42115 341.48856,513.42115" style="fill:none;fill-rule:evenodd;stroke:#000000;stroke-width:2.23653531px;stroke-linecap:butt;stroke-linejoin:miter;stroke-opacity:1"/>
        <path style="fill:none;fill-rule:evenodd;stroke:#f80000;stroke-width:2.23653531px;stroke-linecap:butt;stroke-linejoin:miter;stroke-opacity:1" d="M 283.6182,513.42115 C 283.89777,512.9552 284.17733,512.48924 284.4569,512.02331 C 285.51736,510.25588 287.51302,508.9672 288.92998,507.55024 C 290.07745,506.40277 293.16675,506.3729 294.52131,506.71154 C 296.53088,507.21393 296.96804,508.60124 297.31699,510.34591 C 297.69037,512.21286 296.60322,514.03973 296.19872,515.65768 C 295.91223,516.80359 293.88128,517.93468 292.84391,518.45335 C 291.11577,519.31744 289.20954,517.86114 289.20954,516.21682 C 289.20954,513.64256 291.34662,511.8432 293.12348,510.06634 C 294.70394,508.48587 296.38213,507.78396 298.43525,507.27068 C 300.58979,506.73205 302.33598,506.6851 303.18788,508.38894 C 304.16494,510.34304 304.58573,511.45624 304.58573,513.70072 C 304.58573,515.2083 302.75849,516.25929 302.06962,516.77595 C 300.54703,517.9179 299.16873,517.22986 298.15569,516.21682 C 296.53858,514.59971 299.46916,510.73795 300.39222,509.50721 C 301.60304,507.89278 302.96426,507.74594 304.86529,507.27068 C 306.76375,506.79605 308.7572,507.54142 310.17706,508.10938 C 311.92371,508.80805 310.9804,512.75929 310.73619,513.98028 C 310.29784,516.17213 310.58311,516.8525 308.49966,517.89422 C 306.72771,518.7802 305.1116,516.91799 304.58573,516.21682 C 303.26041,514.44975 306.81924,510.62775 307.94053,509.78677 C 309.82693,508.37196 311.10317,508.08753 313.2523,507.55024 C 315.16783,507.07135 315.99315,507.36935 317.72537,508.66851 C 318.84388,509.50739 319.1232,511.85302 319.1232,513.14158 C 319.1232,514.90479 318.20419,515.95116 317.16623,517.33508 C 316.27019,518.52979 314.11298,517.62565 312.97274,517.05552 C 310.98888,516.06359 313.2075,512.19116 313.81143,511.18461 C 314.76978,509.58734 318.04081,507.82981 319.9619,507.82981 C 322.71358,507.82981 324.04523,507.46762 326.39194,509.22764 C 328.61043,510.89151 327.42089,513.21932 326.95107,515.09855 C 326.48467,516.96419 325.64989,517.42656 324.15541,518.17378 C 322.25095,519.12601 321.09072,516.25904 320.80061,515.09855 C 320.2913,513.06129 323.79955,510.70176 324.99411,509.50721 C 326.32585,508.17549 327.46258,508.10938 329.46718,508.10938 C 330.57941,508.10938 332.12794,510.25923 332.82198,511.18461 C 333.66462,512.30813 332.83916,515.3094 332.54242,516.49638 C 332.11397,518.2102 331.80892,519.40553 330.02632,519.85118 C 327.8477,520.39585 327.31874,519.17343 326.95107,517.33508 C 326.65309,515.84508 329.00525,513.32395 330.02632,512.30287 C 331.57903,510.75016 333.3422,509.72662 335.33808,509.22764 C 337.50507,508.6859 337.69629,508.1702 339.81116,509.22764 C 340.29901,509.47158 340.58799,511.77584 340.64986,512.02331 C 340.94063,513.18638 339.06384,515.34947 338.41333,516.21682 C 337.33992,517.64802 335.66956,517.33508 333.94025,517.33508 C 332.27853,517.33508 335.37669,513.66213 335.61765,513.42115 C 336.92126,512.11755 338.56029,511.39071 340.09072,510.62547 C 340.7083,510.3167 340.81886,510.26141 341.20899,510.06634" id="path3214"/>
        <path style="fill:none;fill-rule:evenodd;stroke:#002aab;stroke-width:6.70960617;stroke-linecap:butt;stroke-linejoin:miter;stroke-miterlimit:3.9000001;stroke-dasharray:none;stroke-opacity:1" d="M 221.83391,389.29343 C 221.97369,389.15364 221.83391,366.92807 221.83391,366.92807 L 407.46635,366.92807 L 407.46635,387.05689" id="path3218" sodipodi:nodetypes="cccc"/>
        <switch style="font-size:23.86296272px;font-style:normal;font-weight:normal;fill:#000000;fill-opacity:1;stroke:none;stroke-width:1px;stroke-linecap:butt;stroke-linejoin:miter;stroke-opacity:1;font-family:Bitstream Vera Sans"><text xml:space="preserve" style="font-size:23.86296272px;font-style:normal;font-weight:normal;fill:#000000;fill-opacity:1;stroke:none;stroke-width:1px;stroke-linecap:butt;stroke-linejoin:miter;stroke-opacity:1;font-family:Bitstream Vera Sans" x="142.83781" y="63.447277" id="text3220-yue" systemLanguage="yue"><tspan sodipodi:role="line" id="tspan3222-yue" x="142.83781" y="63.447277" style="font-size:23.86296272px">攪拌機</tspan></text><text xml:space="preserve" style="font-size:23.86296272px;font-style:normal;font-weight:normal;fill:#000000;fill-opacity:1;stroke:none;stroke-width:1px;stroke-linecap:butt;stroke-linejoin:miter;stroke-opacity:1;font-family:Bitstream Vera Sans" x="142.83781" y="63.447277" id="text3220"><tspan sodipodi:role="line" id="tspan3222" x="142.83781" y="63.447277" style="font-size:23.86296272px">Rührer</tspan></text></switch>
        <switch style="font-size:23.86296272px;font-style:normal;font-weight:normal;fill:#000000;fill-opacity:1;stroke:none;stroke-width:1px;stroke-linecap:butt;stroke-linejoin:miter;stroke-opacity:1;font-family:Bitstream Vera Sans"><text id="text3224-yue" y="111.1732" x="240.67595" style="font-size:23.86296272px;font-style:normal;font-weight:normal;fill:#000000;fill-opacity:1;stroke:none;stroke-width:1px;stroke-linecap:butt;stroke-linejoin:miter;stroke-opacity:1;font-family:Bitstream Vera Sans" xml:space="preserve" systemLanguage="yue"><tspan style="font-size:23.86296272px" y="111.1732" x="240.67595" id="tspan3226-yue" sodipodi:role="line">電點</tspan><tspan style="font-size:23.86296272px" y="141.00191" x="240.67595" sodipodi:role="line" id="tspan3228-yue">火線</tspan></text><text id="text3224" y="111.1732" x="240.67595" style="font-size:23.86296272px;font-style:normal;font-weight:normal;fill:#000000;fill-opacity:1;stroke:none;stroke-width:1px;stroke-linecap:butt;stroke-linejoin:miter;stroke-opacity:1;font-family:Bitstream Vera Sans" xml:space="preserve"><tspan style="font-size:23.86296272px" y="111.1732" x="240.67595" id="tspan3226" sodipodi:role="line">elektrische </tspan><tspan style="font-size:23.86296272px" y="141.00191" x="240.67595" sodipodi:role="line" id="tspan3228">Zünddrähte</tspan></text></switch>
        <switch style="font-size:23.86296272px;font-style:normal;font-weight:normal;fill:#000000;fill-opacity:1;stroke:none;stroke-width:1px;stroke-linecap:butt;stroke-linejoin:miter;stroke-opacity:1;font-family:Bitstream Vera Sans"><text id="text3230-yue" y="63.447277" x="355.21817" style="font-size:23.86296272px;font-style:normal;font-weight:normal;fill:#000000;fill-opacity:1;stroke:none;stroke-width:1px;stroke-linecap:butt;stroke-linejoin:miter;stroke-opacity:1;font-family:Bitstream Vera Sans" xml:space="preserve" systemLanguage="yue"><tspan style="font-size:23.86296272px" y="63.447277" x="355.21817" id="tspan3232-yue" sodipodi:role="line">體溫計</tspan></text><text id="text3230" y="63.447277" x="355.21817" style="font-size:23.86296272px;font-style:normal;font-weight:normal;fill:#000000;fill-opacity:1;stroke:none;stroke-width:1px;stroke-linecap:butt;stroke-linejoin:miter;stroke-opacity:1;font-family:Bitstream Vera Sans" xml:space="preserve"><tspan style="font-size:23.86296272px" y="63.447277" x="355.21817" id="tspan3232" sodipodi:role="line">Thermometer</tspan></text></switch>
        <switch style="font-size:23.86296272px;font-style:normal;font-weight:normal;fill:#ffffff;fill-opacity:1;stroke:none;stroke-width:1px;stroke-linecap:butt;stroke-linejoin:miter;stroke-opacity:1;font-family:Bitstream Vera Sans"><text xml:space="preserve" style="font-size:23.86296272px;font-style:normal;font-weight:normal;fill:#ffffff;fill-opacity:1;stroke:none;stroke-width:1px;stroke-linecap:butt;stroke-linejoin:miter;stroke-opacity:1;font-family:Bitstream Vera Sans" x="215.61984" y="698.20209" id="text3234-yue" systemLanguage="yue"><tspan sodipodi:role="line" id="tspan3236-yue" x="215.61984" y="698.20209" style="font-size:23.86296272px;fill:#ffffff">外部絕緣</tspan></text><text xml:space="preserve" style="font-size:23.86296272px;font-style:normal;font-weight:normal;fill:#ffffff;fill-opacity:1;stroke:none;stroke-width:1px;stroke-linecap:butt;stroke-linejoin:miter;stroke-opacity:1;font-family:Bitstream Vera Sans" x="215.61984" y="698.20209" id="text3234"><tspan sodipodi:role="line" id="tspan3236" x="215.61984" y="698.20209" style="font-size:23.86296272px;fill:#ffffff">Außenisolierung</tspan></text></switch>
        <switch style="font-size:23.86296272px;font-style:normal;font-weight:normal;fill:#ffffff;fill-opacity:1;stroke:none;stroke-width:1px;stroke-linecap:butt;stroke-linejoin:miter;stroke-opacity:1;font-family:Bitstream Vera Sans"><text id="text3238-yue" y="621.84058" x="141.64467" style="font-size:23.86296272px;font-style:normal;font-weight:normal;fill:#ffffff;fill-opacity:1;stroke:none;stroke-width:1px;stroke-linecap:butt;stroke-linejoin:miter;stroke-opacity:1;font-family:Bitstream Vera Sans" xml:space="preserve" systemLanguage="yue"><tspan style="font-size:23.86296272px;fill:#ffffff" y="621.84058" x="141.64467" id="tspan3240-yue" sodipodi:role="line">水</tspan></text><text id="text3238" y="621.84058" x="141.64467" style="font-size:23.86296272px;font-style:normal;font-weight:normal;fill:#ffffff;fill-opacity:1;stroke:none;stroke-width:1px;stroke-linecap:butt;stroke-linejoin:miter;stroke-opacity:1;font-family:Bitstream Vera Sans" xml:space="preserve"><tspan style="font-size:23.86296272px;fill:#ffffff" y="621.84058" x="141.64467" id="tspan3240" sodipodi:role="line">Wasser</tspan></text></switch>
        <switch style="font-size:23.86296272px;font-style:normal;font-weight:normal;fill:#ffffff;fill-opacity:1;stroke:none;stroke-width:1px;stroke-linecap:butt;stroke-linejoin:miter;stroke-opacity:1;font-family:Bitstream Vera Sans"><text xml:space="preserve" style="font-size:23.86296272px;font-style:normal;font-weight:normal;fill:#ffffff;fill-opacity:1;stroke:none;stroke-width:1px;stroke-linecap:butt;stroke-linejoin:miter;stroke-opacity:1;font-family:Bitstream Vera Sans" x="410.30893" y="770.60858" id="text3242-yue" systemLanguage="yue"><tspan sodipodi:role="line" id="tspan3244-yue" x="410.30893" y="770.60858" style="font-size:23.86296272px;fill:#000000">有純氧嘅</tspan><tspan sodipodi:role="line" x="410.30893" y="800.43726" style="font-size:23.86296272px;fill:#000000" id="tspan3246-yue">燃燒缸</tspan></text><text xml:space="preserve" style="font-size:23.86296272px;font-style:normal;font-weight:normal;fill:#ffffff;fill-opacity:1;stroke:none;stroke-width:1px;stroke-linecap:butt;stroke-linejoin:miter;stroke-opacity:1;font-family:Bitstream Vera Sans" x="410.30893" y="770.60858" id="text3242"><tspan sodipodi:role="line" id="tspan3244" x="410.30893" y="770.60858" style="font-size:23.86296272px;fill:#000000">Verbrennungsbehälter</tspan><tspan sodipodi:role="line" x="410.30893" y="800.43726" style="font-size:23.86296272px;fill:#000000" id="tspan3246">mit reinem Sauerstoff</tspan></text></switch>
        <switch style="font-size:47.72592545px;font-style:normal;font-weight:normal;fill:#000000;fill-opacity:1;stroke:none;stroke-width:1px;stroke-linecap:butt;stroke-linejoin:miter;stroke-opacity:1;font-family:Bitstream Vera Sans"><text id="text3248-yue" y="657.63501" x="237.09651" style="font-size:47.72592545px;font-style:normal;font-weight:normal;fill:#000000;fill-opacity:1;stroke:none;stroke-width:1px;stroke-linecap:butt;stroke-linejoin:miter;stroke-opacity:1;font-family:Bitstream Vera Sans" xml:space="preserve" systemLanguage="yue"><tspan style="font-size:23.86296272px;fill:#000000" y="657.63501" x="237.09651" id="tspan3250-yue" sodipodi:role="line">空氣隔熱</tspan></text><text id="text3248" y="657.63501" x="237.09651" style="font-size:47.72592545px;font-style:normal;font-weight:normal;fill:#000000;fill-opacity:1;stroke:none;stroke-width:1px;stroke-linecap:butt;stroke-linejoin:miter;stroke-opacity:1;font-family:Bitstream Vera Sans" xml:space="preserve"><tspan style="font-size:23.86296272px;fill:#000000" y="657.63501" x="237.09651" id="tspan3250" sodipodi:role="line">Luftsolierung</tspan></text></switch>
        <path style="fill:none;fill-rule:evenodd;stroke:#000000;stroke-width:1.19314814;stroke-linecap:butt;stroke-linejoin:miter;marker-end:url(#Arrow2Lend);stroke-miterlimit:4;stroke-dasharray:3.5794443, 1.1931481;stroke-dashoffset:0;stroke-opacity:1" d="M 541.37184,735.39783 C 542.83202,738.38496 372.86369,572.11629 372.86369,572.11629" id="path3252" sodipodi:nodetypes="cc"/>
        <path sodipodi:nodetypes="cc" id="path4547" d="M 620.56779,203.39611 C 622.02797,203.55483 372.86369,474.27815 372.86369,474.27815" style="fill:none;fill-rule:evenodd;stroke:#000000;stroke-width:1.19314814;stroke-linecap:butt;stroke-linejoin:miter;marker-end:url(#Arrow2Lend);stroke-miterlimit:4;stroke-dasharray:3.5794443, 1.1931481;stroke-dashoffset:0;stroke-opacity:1"/>
        <switch style="font-size:23.86296272px;font-style:normal;font-weight:normal;fill:#ffffff;fill-opacity:1;stroke:none;stroke-width:1px;stroke-linecap:butt;stroke-linejoin:miter;stroke-opacity:1;font-family:Bitstream Vera Sans"><text id="text4549-yue" y="159.85303" x="553.14453" style="font-size:23.86296272px;font-style:normal;font-weight:normal;fill:#ffffff;fill-opacity:1;stroke:none;stroke-width:1px;stroke-linecap:butt;stroke-linejoin:miter;stroke-opacity:1;font-family:Bitstream Vera Sans" xml:space="preserve" systemLanguage="yue"><tspan id="tspan4553-yue" style="font-size:23.86296272px;fill:#000000" y="159.85303" x="553.14453" sodipodi:role="line">被燒燶嘅</tspan><tspan style="font-size:23.86296272px;fill:#000000" y="189.68173" x="553.14453" sodipodi:role="line" id="tspan4557-yue">物質</tspan></text><text id="text4549" y="159.85303" x="553.14453" style="font-size:23.86296272px;font-style:normal;font-weight:normal;fill:#ffffff;fill-opacity:1;stroke:none;stroke-width:1px;stroke-linecap:butt;stroke-linejoin:miter;stroke-opacity:1;font-family:Bitstream Vera Sans" xml:space="preserve"><tspan id="tspan4553" style="font-size:23.86296272px;fill:#000000" y="159.85303" x="553.14453" sodipodi:role="line">zu verbrennende</tspan><tspan style="font-size:23.86296272px;fill:#000000" y="189.68173" x="553.14453" sodipodi:role="line" id="tspan4557">Substanz</tspan></text></switch>
      </g>
    </g>
  </g>
</svg>
