<svg width="16" height="17" fill="none" xmlns="http://www.w3.org/2000/svg"><path d="M5.306 13.191a8.919 8.919 0 0 0-2.067-1.94l7.1-7.087 1.997 1.997-7.03 7.03Z" fill="#000"/><path d="m10.34 5.07 1.09 1.09-6.08 6.08a14.315 14.315 0 0 0-.377-.393 9.675 9.675 0 0 0-.743-.672l6.112-6.109-.003.004Zm.002-1.815L2.214 11.38c.685.358 1.31.823 1.85 1.376.44.43.826.91 1.152 1.43l8.026-8.025-2.903-2.903.003-.003ZM1.734 13.316c.349.23.67.496.96.797.2.201.387.415.56.64l-1.926.419.406-1.856Z" fill="#000"/><path d="m1.28 12.379-.794 3.635 3.719-.82.064-.064a5.979 5.979 0 0 0-1.11-1.472 5.172 5.172 0 0 0-1.873-1.28H1.28ZM12.16 2.356l.713-.714a.32.32 0 0 1 .452 0l1.533 1.546a.32.32 0 0 1 0 .451l-.714.701-1.984-1.984Z" fill="#000"/><path d="m13.085 2.32 1.09 1.092-.031.032-1.091-1.091.032-.032Zm0-1.41a.96.96 0 0 0-.676.278l-1.164 1.168 2.899 2.9 1.165-1.166a.96.96 0 0 0 0-1.353l-1.55-1.549a.96.96 0 0 0-.678-.278h.004Z" fill="#000"/></svg>