<svg width="12" height="15" fill="none" xmlns="http://www.w3.org/2000/svg"><path d="M11.066 7.625A2.023 2.023 0 0 0 9.315 5.63H5.347c.32-1.302 0-3.091-.294-3.923C4.78.975 4.265.428 3.705.316a1.018 1.018 0 0 0-.96.256c-.64.64-.275 1.75-.233 1.878l.051.103a1.92 1.92 0 0 1 .147 1.52C2.413 5.31 1.395 6.578.963 6.828l-.032.02a1.51 1.51 0 0 0-.64 1.244v4.736c0 1.171.64 1.818 1.818 1.818H8.24l.038-.087a1.26 1.26 0 0 0 .781-1.168v-.297a1.15 1.15 0 0 0-.045-.32 1.28 1.28 0 0 0 1.114-1.255v-.307a1.382 1.382 0 0 0-.042-.32 1.255 1.255 0 0 0 .515-1.018v-.297c0-.165-.033-.328-.096-.48l.228-.56c.216-.255.334-.578.332-.912Z" fill="#000"/></svg>